<?xml version="1.0" standalone="no"?>
<!DOCTYPE svg PUBLIC "-//W3C//DTD SVG 20010904//EN"
 "http://www.w3.org/TR/2001/REC-SVG-20010904/DTD/svg10.dtd">
<svg version="1.0" xmlns="http://www.w3.org/2000/svg"
 width="1248.000000pt" height="832.000000pt" viewBox="0 0 1248.000000 832.000000"
 preserveAspectRatio="xMidYMid meet">

<g transform="translate(0.000000,832.000000) scale(0.100000,-0.100000)"
fill="#000000" stroke="none">
<path d="M8220 6609 c-290 -209 -655 -509 -935 -769 -144 -133 -154 -138 -25
-10 121 120 346 332 440 415 148 130 469 430 465 434 -10 10 -385 -260 -545
-393 -140 -116 -349 -296 -439 -379 -47 -42 -88 -74 -92 -70 -4 5 -25 80 -47
169 -22 88 -47 177 -56 198 -29 70 -114 83 -260 41 -154 -45 -192 -86 -121
-133 25 -18 42 -43 66 -100 32 -79 96 -275 125 -384 l15 -61 -185 -186 c-298
-300 -468 -487 -547 -605 -34 -51 -40 -66 -37 -105 l3 -46 51 -3 c37 -2 72 5
130 26 l79 29 295 297 c162 162 298 296 303 296 4 0 7 -6 7 -13 0 -6 24 -65
54 -130 88 -191 196 -317 271 -317 70 0 231 107 275 183 26 45 20 72 -13 63
-35 -9 -99 29 -139 81 -67 89 -185 358 -172 392 6 17 418 416 699 677 289 269
307 286 402 382 168 169 148 175 -67 21z m-1371 -1188 c-7 -10 -21 -24 -33
-31 -15 -9 -12 -3 8 19 34 35 41 39 25 12z m-181 -230 c-67 -79 -294 -336
-315 -358 -27 -28 -48 -31 -34 -5 11 20 220 251 307 340 69 69 94 83 42 23z"/>
<path d="M6155 6266 c-174 -40 -444 -186 -632 -343 -307 -255 -426 -447 -364
-587 38 -86 88 -144 134 -157 51 -14 206 -6 430 22 158 19 221 18 254 -7 17
-12 17 -14 2 -41 -24 -40 -128 -122 -245 -193 -170 -103 -489 -215 -589 -208
-34 3 -40 6 -37 24 7 52 -55 32 -105 -34 -80 -105 -67 -246 25 -272 99 -27
261 7 492 102 303 125 607 354 688 517 72 148 1 311 -157 355 -69 19 -161 20
-379 2 -170 -14 -210 -12 -219 10 -16 41 196 253 372 372 112 75 334 182 379
182 10 0 -27 -76 -64 -129 -21 -31 -63 -87 -94 -124 -65 -79 -72 -117 -32
-163 22 -27 25 -27 64 -16 130 39 392 361 392 482 0 17 -12 40 -31 61 -17 18
-41 53 -54 78 -13 25 -33 52 -45 59 -33 20 -117 23 -185 8z m-25 -500 c0 -2
-8 -10 -17 -17 -16 -13 -17 -12 -4 4 13 16 21 21 21 13z m-450 -1016 c0 -5 -8
-10 -17 -10 -15 0 -16 2 -3 10 19 12 20 12 20 0z"/>
<path d="M4772 6193 c-12 -3 -33 -16 -47 -31 -13 -15 -82 -90 -152 -167 -226
-246 -630 -763 -847 -1083 -35 -51 -32 -49 -171 -97 -60 -21 -182 -66 -270
-100 l-160 -62 -126 -124 c-69 -68 -131 -133 -137 -144 -16 -30 -43 -171 -36
-189 12 -32 44 -26 182 38 174 80 363 159 369 153 2 -3 -9 -27 -25 -53 -117
-198 -202 -366 -202 -400 0 -40 33 -58 95 -50 54 6 148 38 172 58 7 6 31 47
54 91 41 80 114 204 250 422 l68 110 143 57 c191 76 576 218 592 218 9 0 10
-22 3 -92 -4 -51 -7 -164 -5 -251 3 -153 4 -159 27 -178 31 -26 86 -24 165 5
120 43 116 36 116 189 0 125 17 304 40 428 9 48 17 60 65 102 43 38 55 55 55
77 0 26 -4 29 -37 32 -37 3 -38 4 -35 38 9 96 108 525 173 746 16 56 29 117
29 136 0 41 -28 71 -85 91 -57 20 -216 38 -263 30z m-97 -522 c-24 -94 -64
-295 -80 -406 -25 -166 -16 -151 -98 -171 -40 -9 -148 -39 -241 -66 -93 -26
-170 -47 -172 -45 -3 3 289 394 361 484 110 136 240 283 243 274 2 -5 -4 -37
-13 -70z m-125 -639 c0 -9 -170 -56 -177 -48 -3 2 28 14 69 26 40 12 78 23 83
25 17 6 25 5 25 -3z m-435 -133 c-49 -16 -94 -27 -100 -25 -13 4 144 54 170
54 11 0 -20 -13 -70 -29z m-260 -78 c-6 -5 -95 -41 -200 -79 -104 -38 -270
-102 -369 -141 -98 -40 -181 -70 -183 -67 -7 7 48 33 186 88 177 70 546 205
571 207 2 1 0 -3 -5 -8z"/>
<path d="M7608 4895 c-38 -26 -116 -123 -205 -255 -123 -184 -347 -628 -444
-880 -44 -114 -45 -116 -139 -208 -176 -173 -407 -343 -487 -358 -41 -8 -73
16 -73 54 0 79 66 246 146 369 112 173 264 299 287 238 4 -8 0 -38 -8 -68 -23
-90 -23 -97 8 -97 56 0 135 81 144 148 21 155 -190 210 -376 99 -127 -75 -275
-255 -358 -435 -46 -99 -63 -162 -63 -239 l0 -61 -65 -59 c-35 -32 -79 -66
-97 -75 -30 -16 -33 -17 -41 -1 -27 47 24 245 104 406 27 54 49 107 49 117 0
11 11 36 25 56 29 43 30 55 9 100 -33 69 -86 83 -128 33 l-26 -31 -30 26 c-39
32 -85 41 -151 27 -117 -25 -271 -135 -394 -279 -33 -39 -62 -71 -65 -71 -3
-1 -3 27 -2 60 5 73 -8 102 -53 124 -97 45 -193 -9 -376 -210 -45 -49 -106
-123 -137 -163 -30 -40 -57 -71 -59 -68 -2 2 4 24 15 48 11 23 30 65 42 92 57
126 58 165 10 211 -19 18 -43 29 -73 32 -40 5 -46 3 -66 -25 -11 -17 -21 -32
-21 -35 0 -3 -13 -34 -29 -69 -116 -252 -260 -645 -276 -753 -9 -55 15 -107
60 -135 62 -39 103 -20 121 55 33 135 159 337 366 587 110 132 266 274 283
256 2 -2 -4 -38 -12 -80 -23 -115 -10 -131 68 -79 24 17 45 29 46 27 2 -1 -21
-50 -50 -107 -86 -168 -108 -294 -65 -370 35 -63 117 -87 191 -55 68 28 258
224 364 376 25 36 49 69 53 73 4 5 6 -40 3 -100 -5 -124 7 -161 66 -200 86
-58 215 -1 334 146 l27 33 22 -27 c64 -82 234 -70 376 26 83 57 225 174 301
250 l74 74 -8 -52 c-12 -89 -8 -141 15 -188 37 -76 123 -100 135 -37 29 139
112 403 135 426 7 7 16 2 26 -14 41 -62 163 -167 239 -207 111 -58 191 -77
287 -69 90 7 141 27 179 67 23 25 32 28 48 20 51 -28 180 2 291 66 65 38 204
147 283 222 37 35 67 61 67 56 0 -5 -12 -42 -26 -83 -19 -55 -24 -84 -19 -113
10 -58 44 -102 87 -113 45 -11 58 -2 77 51 46 134 121 242 290 416 96 100 281
247 309 247 5 0 4 -16 -4 -37 -7 -21 -13 -74 -14 -119 0 -131 48 -206 170
-263 52 -25 63 -26 220 -26 224 1 449 41 696 125 49 16 90 30 91 30 2 0 3 11
3 24 0 59 -51 64 -285 31 -144 -21 -232 -28 -365 -29 -197 -1 -246 8 -293 55
-27 27 -29 35 -25 83 3 35 19 84 47 144 50 104 49 126 -3 178 -47 47 -90 52
-157 20 -66 -32 -247 -176 -372 -297 -50 -49 -93 -89 -95 -89 -7 0 39 77 116
195 52 79 85 140 85 156 0 15 -12 47 -26 72 -33 56 -74 70 -116 40 -58 -44
-194 -256 -259 -408 -37 -85 -38 -87 -177 -206 -257 -221 -450 -328 -494 -275
-17 20 -17 89 -1 156 11 46 14 50 48 55 140 22 326 126 431 241 66 72 86 116
86 191 0 76 -24 106 -102 129 -71 21 -129 11 -228 -36 -120 -58 -236 -166
-332 -310 -70 -104 -101 -170 -124 -258 -30 -118 -22 -193 26 -251 14 -16 25
-32 25 -36 0 -4 -37 -5 -82 -3 -68 4 -94 10 -146 37 -72 37 -194 153 -230 218
l-23 42 33 37 c35 39 225 202 322 275 33 24 93 64 135 90 54 32 77 52 79 68
14 91 -86 130 -194 76 -68 -34 -235 -175 -386 -327 -71 -70 -128 -124 -128
-121 0 3 52 108 116 232 154 298 269 492 387 649 38 50 39 54 35 114 -4 51 -9
65 -32 85 -34 29 -52 29 -98 -2z m802 -711 c0 -62 -86 -171 -203 -260 -62 -46
-157 -100 -157 -88 0 20 120 184 177 242 61 62 154 132 175 132 4 0 8 -12 8
-26z m-2574 -515 c3 -6 -12 -30 -34 -52 -21 -23 -102 -123 -178 -222 -127
-165 -366 -425 -390 -425 -21 0 -1 67 51 176 67 142 103 197 207 320 83 96
160 166 223 198 34 18 111 21 121 5z"/>
<path d="M6695 4523 c-151 -9 -554 -60 -785 -99 -497 -82 -767 -142 -1335
-293 -131 -35 -475 -139 -595 -181 -633 -218 -1056 -395 -1445 -603 -182 -98
-265 -153 -265 -175 0 -49 137 -143 217 -150 49 -4 57 -1 150 56 274 168 781
416 1186 581 259 105 337 134 344 128 3 -3 -8 -25 -24 -49 -225 -330 -604
-1121 -784 -1638 -57 -163 -44 -251 49 -350 62 -64 113 -51 127 32 22 131 200
619 338 923 192 426 392 809 519 997 48 72 49 99 2 134 -25 20 -32 29 -22 35
49 26 566 188 943 294 413 117 1030 256 1463 330 73 12 136 25 139 29 6 6
-123 6 -222 -1z"/>
<path d="M9659 3296 c-2 -2 -85 -6 -184 -10 -901 -34 -2362 -278 -3460 -578
-121 -33 -258 -70 -305 -83 -228 -62 -718 -222 -920 -300 -52 -20 -106 -40
-120 -45 -158 -52 -571 -244 -687 -319 -54 -35 -63 -45 -63 -71 0 -34 42 -68
119 -95 70 -24 94 -19 219 47 823 438 2173 863 3702 1167 333 66 364 72 710
130 363 61 490 80 688 101 100 11 213 25 250 30 37 5 87 10 112 10 33 0 41 3
30 10 -14 9 -82 14 -91 6z"/>
</g>
</svg>
