<?xml version="1.0" encoding="UTF-8"?>
<svg version="1.1" xmlns="http://www.w3.org/2000/svg" width="54" height="69">
<path d="M0 0 C17.82 0 35.64 0 54 0 C54 22.77 54 45.54 54 69 C36.18 69 18.36 69 0 69 C0 46.23 0 23.46 0 0 Z " fill="#201F1E" transform="translate(0,0)"/>
<path d="M0 0 C2.17937985 1.66404432 3.93015931 3.18327133 5.8125 5.125 C6.30169922 5.58648437 6.79089844 6.04796875 7.29492188 6.5234375 C10.87635862 10.12964213 11.71902556 12.99241102 12 18 C9.35674154 20.53752812 8.11659328 20.99195908 4.375 21.25 C1 21 1 21 -1 20 C-5.19281771 19.67115155 -7.72869426 19.88305787 -11.625 21.5625 C-15.15088379 23.06426532 -16.48575877 23.40569649 -20 22 C-22.34168764 18.48746854 -22.49623677 17.13530644 -22 13 C-19.39159293 9.27883211 -16.44229786 6.53994639 -12.875 3.75 C-12.00617187 3.06421875 -11.13734375 2.3784375 -10.2421875 1.671875 C-6.38988749 -1.2005717 -4.68271761 -1.27659129 0 0 Z " fill="#C19A85" transform="translate(30,38)"/>
<path d="M0 0 C4.60794092 0.27105535 6.77984246 2.28413477 9.9609375 5.33203125 C11 7 11 7 10.8046875 9.0234375 C9.5184161 12.18291967 7.64239654 13.89809366 5 16 C2.3125 16.0625 2.3125 16.0625 0 15 C-2.88694732 11.56315795 -2.26896636 7.23622023 -2 3 C-1.34 2.01 -0.68 1.02 0 0 Z " fill="#BE9984" transform="translate(5,29)"/>
<path d="M0 0 C0.08150744 2.06183633 0.1394194 4.12461349 0.1875 6.1875 C0.22230469 7.33605469 0.25710937 8.48460937 0.29296875 9.66796875 C-0.02377421 13.27039199 -0.91466602 15.09366839 -3 18 C-6.42106076 17.74658809 -7.30782184 16.69217816 -9.8125 14.1875 C-12 11 -12 11 -11.87890625 9.03515625 C-10.74747087 6.41525477 -9.28584827 5.10215566 -7.125 3.25 C-6.42632812 2.63640625 -5.72765625 2.0228125 -5.0078125 1.390625 C-3 0 -3 0 0 0 Z " fill="#BE9983" transform="translate(46,28)"/>
<path d="M0 0 C1.83492674 5.39009729 2.52618714 10.29759979 2 16 C1 17 1 17 -1.3125 17.375 C-4 17 -4 17 -6.3125 14.875 C-8.32893182 11.43959764 -8.71924987 9.91591597 -8 6 C-5.92141182 2.51717477 -4.31695042 0 0 0 Z " fill="#BE9985" transform="translate(20,14)"/>
<path d="M0 0 C3.28602882 2.71097377 4.85071248 4.17891863 5.625 8.4375 C4.81470649 13.05617298 3.23527148 14.68384673 0 18 C-1.32 17.34 -2.64 16.68 -4 16 C-4.21502018 10.62449542 -4.25603962 6.01342137 -2 1 C-1.34 0.67 -0.68 0.34 0 0 Z " fill="#BF9985" transform="translate(32,14)"/>
<path d="M0 0 C0.66 0.66 1.32 1.32 2 2 C1.625 4.625 1.625 4.625 1 7 C0.01 6.67 -0.98 6.34 -2 6 C-1.125 1.125 -1.125 1.125 0 0 Z " fill="#937A6A" transform="translate(18,6)"/>
<path d="M0 0 C1.98 0.99 1.98 0.99 4 2 C4 3.32 4 4.64 4 6 C3.01 6 2.02 6 1 6 C0.67 4.02 0.34 2.04 0 0 Z " fill="#9C816F" transform="translate(1,22)"/>
</svg>
